<?xml version="1.0" encoding="UTF-8"?>
<svg id="Layer_2" data-name="Layer 2" xmlns="http://www.w3.org/2000/svg" viewBox="0 0 218.76 218.76">
  <g id="Layer_1-2" data-name="Layer 1">
    <path d="m109.38,0C48.97,0,0,48.97,0,109.38s48.97,109.38,109.38,109.38,109.38-48.97,109.38-109.38S169.79,0,109.38,0Zm71.06,175.14c-5.62,9.77-10.75,14.66-15.39,14.66-3.59,0-8.41-1.59-14.45-4.75-3.31-1.69-4.96-7.81-4.96-18.35,0-6.75.63-16.31,1.9-28.69.49-4.22,2.46-16.98,5.9-38.29,3.31-20.81,4.96-33.67,4.96-38.6s-.39-9.38-1.16-13.39c-1.05.77-2.5,2.85-4.32,6.22-1.83,3.38-3.41,6.58-4.75,9.6s-1.9,4.43-1.69,4.22c-4.5,9.42-8.61,19.93-12.34,31.53l-4.11,12.98-4.54,14.97c-.7,3.24-1.75,7.39-3.16,12.45-2.32,9.63-3.48,18.84-3.48,27.63v7.81c.14,3.3.21,5.83.21,7.59-.28,2.53-.42,3.97-.42,4.32,0,.57.24,1.85.74,3.85.49,2.01.74,3.32.74,3.96,0,1.83-.99,2.74-2.96,2.74-.7,0-1.49-.12-2.37-.37s-1.86-.62-2.95-1.11c-1.09-.49-1.71-.77-1.85-.84-4.29-1.06-6.43-6.54-6.43-16.45,0-25.67,3.44-61.46,10.33-107.37l1.69-10.34c1.9-11.88,2.85-19.37,2.85-22.46s-.74-5.26-2.22-6.28c-1.47-1.02-4.11-1.53-7.91-1.53-12.51,0-28.58,5.49-48.2,16.46-6.96,3.86-12.92,9.47-17.87,16.82-4.96,7.35-8.56,15.49-10.81,24.42-.1.79-.49,2.03-1.17,3.72-.25.74-.5,1.48-.7,2.24-.15.55-.25,1.1-.31,1.65.17.76.37,1.84.59,3.25.36,2.18.64,3.58.85,4.22,1.19,3.23,2.42,5.41,3.69,6.54,5.2-.21,11.6-3.62,19.19-10.23,6.12-5.35,11.61-10.8,16.46-16.35,5.97-6.61,9.49-11.88,10.54-15.82.57-2.25,1.3-3.38,2.22-3.38.35,0,1.23,1.27,2.64,3.8,0,7.52-3.56,16.1-10.66,25.73-7.24,9.78-16.59,17.41-28.05,22.89-.56,0-1.86.07-3.9.21-2.04.14-3.34.21-3.91.21-12.3,0-19.79-4.63-22.51-13.86.59-1.53.75-3.27.47-5,.17.55.18-2.04.22-2.4.09-.93.2-1.87.32-2.8.17-1.28.41-2.97.69-4.66.23-.45.42-.92.56-1.42.09-.36.21-.71.28-1.07.06-.26.09-.52.12-.79.86-2.45,2.02-5.23,3.51-8.39,7.17-15.12,20.18-28.13,39.02-39.03,19.2-11.1,37.34-16.66,54.42-16.66,3.66,0,6.61.49,8.86,1.48,2.39.91,3.99,1.76,4.8,2.53.81.77,1.67,2.11,2.58,4.01l1.27,2.95c.42.84.63,1.58.63,2.21,0,3.38-1.3,11.78-3.9,25.21l-4.22,22.78-2.42,13.61c-3.03,16.17-4.54,25.8-4.54,28.9,0,1.12.21,1.68.63,1.68.35,0,1.37-3.02,3.06-9.07l5.17-18.77,3.06-10.55,5.17-15.4c1.4-4.35,3.69-11.67,6.85-21.93,1.34-3.52,2.38-6.01,3.11-7.49.74-1.48,1.67-2.81,2.8-4.01,2.11-2.46,4.88-3.69,8.33-3.69,4.01,0,7.84,2.04,11.5,6.12,3.72,3.94,5.59,7.59,5.59,10.97,0,7.73-.36,13.43-1.06,17.08-4.29,23.63-8.08,47.96-11.39,72.99-1.76,18-2.64,30.16-2.64,36.49,5.7-3.23,11.25-8.33,16.67-15.29,2.95-3.94,5.89-8.21,8.81-12.82,2.91-4.6,5.09-8.05,6.53-10.33,1.44-2.29,2.38-3.43,2.8-3.43.84,0,1.26.35,1.26,1.05,0,1.2-.87,4.5-2.63,9.92-2.82,8.64-6.89,17.57-12.24,26.79Z" fill="#213547"/>
    <path d="m195.31,138.43c0,1.2-.87,4.5-2.63,9.92-2.82,8.64-6.89,17.57-12.24,26.79-5.62,9.77-10.75,14.66-15.39,14.66-3.59,0-8.41-1.59-14.45-4.75-3.31-1.69-4.96-7.81-4.96-18.35,0-6.75.63-16.31,1.9-28.69.49-4.22,2.46-16.98,5.9-38.29,3.31-20.81,4.96-33.67,4.96-38.6s-.39-9.38-1.16-13.39c-1.05.77-2.5,2.85-4.32,6.22-1.83,3.38-3.41,6.58-4.75,9.6s-1.9,4.43-1.69,4.22c-4.5,9.42-8.61,19.93-12.34,31.53l-4.11,12.98-4.54,14.97c-.7,3.24-1.75,7.39-3.16,12.45-2.32,9.63-3.48,18.84-3.48,27.63v7.81c.14,3.3.21,5.83.21,7.59-.28,2.53-.42,3.97-.42,4.32,0,.57.24,1.85.74,3.85.49,2.01.74,3.32.74,3.96,0,1.83-.99,2.74-2.96,2.74-.7,0-1.49-.12-2.37-.37s-1.86-.62-2.95-1.11c-1.09-.49-1.71-.77-1.85-.84-4.29-1.06-6.43-6.54-6.43-16.45,0-25.67,3.44-61.46,10.33-107.37l1.69-10.34c1.9-11.88,2.85-19.37,2.85-22.46s-.74-5.26-2.22-6.28c-1.47-1.02-4.11-1.53-7.91-1.53-12.51,0-28.58,5.49-48.2,16.46-6.96,3.86-12.92,9.47-17.87,16.82-4.96,7.35-8.56,15.49-10.81,24.42-.1.79-.49,2.03-1.17,3.72-.25.74-.5,1.48-.7,2.24-.15.55-.25,1.1-.31,1.65.17.76.37,1.84.59,3.25.36,2.18.64,3.58.85,4.22,1.19,3.23,2.42,5.41,3.69,6.54,5.2-.21,11.6-3.62,19.19-10.23,6.12-5.35,11.61-10.8,16.46-16.35,5.97-6.61,9.49-11.88,10.54-15.82.57-2.25,1.3-3.38,2.22-3.38.35,0,1.23,1.27,2.64,3.8,0,7.52-3.56,16.1-10.66,25.73-7.24,9.78-16.59,17.41-28.05,22.89-.56,0-1.86.07-3.9.21-2.04.14-3.34.21-3.91.21-12.3,0-19.79-4.63-22.51-13.86.59-1.53.75-3.27.47-5,.17.55.18-2.04.22-2.4.09-.93.2-1.87.32-2.8.17-1.28.41-2.97.69-4.66.23-.45.42-.92.56-1.42.09-.36.21-.71.28-1.07.06-.26.09-.52.12-.79.86-2.45,2.02-5.23,3.51-8.39,7.17-15.12,20.18-28.13,39.02-39.03,19.2-11.1,37.34-16.66,54.42-16.66,3.66,0,6.61.49,8.86,1.48,2.39.91,3.99,1.76,4.8,2.53.81.77,1.67,2.11,2.58,4.01l1.27,2.95c.42.84.63,1.58.63,2.21,0,3.38-1.3,11.78-3.9,25.21l-4.22,22.78-2.42,13.61c-3.03,16.17-4.54,25.8-4.54,28.9,0,1.12.21,1.68.63,1.68.35,0,1.37-3.02,3.06-9.07l5.17-18.77,3.06-10.55,5.17-15.4c1.4-4.35,3.69-11.67,6.85-21.93,1.34-3.52,2.38-6.01,3.11-7.49.74-1.48,1.67-2.81,2.8-4.01,2.11-2.46,4.88-3.69,8.33-3.69,4.01,0,7.84,2.04,11.5,6.12,3.72,3.94,5.59,7.59,5.59,10.97,0,7.73-.36,13.43-1.06,17.08-4.29,23.63-8.08,47.96-11.39,72.99-1.76,18-2.64,30.16-2.64,36.49,5.7-3.23,11.25-8.33,16.67-15.29,2.95-3.94,5.89-8.21,8.81-12.82,2.91-4.6,5.09-8.05,6.53-10.33,1.44-2.29,2.38-3.43,2.8-3.43.84,0,1.26.35,1.26,1.05Z" fill="#ffeee9"/>
  </g>
</svg>