<?xml version="1.0" encoding="UTF-8"?>
<svg id="Layer_2" data-name="Layer 2" xmlns="http://www.w3.org/2000/svg" viewBox="0 0 476.51 122.53">
  <g id="Layer_1-2" data-name="Layer 1">
    <g>
      <path d="m250.17,58.97h.47c1.6,0,2.83-.68,3.69-2.05,3.36-12.34,5.16-19.22,5.39-20.62,0-.78-.21-1.68-.64-2.7-2.15-3.09-4.53-4.63-7.15-4.63h-.82c-.74,0-1.45.21-2.11.64-.82,0-1.68,1.97-2.58,5.92-2.58,9.53-3.96,14.94-4.16,16.23,0,.9.29,1.86.88,2.87,2.11,2.89,4.45,4.34,7.03,4.34Z" fill="#213547"/>
      <path d="m471.65,40.58h-10.84c2.34-8.36,3.52-12.89,3.52-13.59,0-.55-.16-1.31-.47-2.29-2.15-3.28-4.59-4.92-7.32-4.92h-.82c-1.25,0-2.34.57-3.28,1.7-.31.74-2.05,7.11-5.21,19.1h-13.18c-1.84,0-2.75.55-2.75,1.64v.59c0,.2.02.35.06.47.78,1.95,2.31,2.93,4.57,2.93h9.79l-5.98,22.32c-2.41,8.99-4.38,16.34-5.9,22.05-.55.69-1.12,1.38-1.71,2.09-4.1,4.34-7.07,7.01-8.91,8.03h-.06c5.9-21.99,8.96-33.63,9.2-34.92,0-.86-.27-1.84-.82-2.93-2.03-2.77-4.1-4.16-6.21-4.16h-.76c-4.38,0-10.31,4.75-17.81,14.24l-4.63,6.33c2.19-8.12,3.34-12.62,3.46-13.48,0-.74-.21-1.62-.64-2.64-2.15-3.09-4.51-4.63-7.09-4.63h-.82c-1.25,0-2.36.61-3.34,1.82-3.5,12.87-6.23,22.97-8.19,30.3-.94,1.17-1.91,2.34-2.94,3.51-3.71,3.67-6.37,5.98-7.97,6.91l3.16-11.78c4.06-15,6.11-22.85,6.15-23.55,0-.62-.21-1.48-.64-2.58-2.19-3.09-4.57-4.63-7.15-4.63h-.82c-1.29,0-2.4.61-3.34,1.82-.78,2.62-1.74,5.72-2.87,9.32-1.52,4.41-3.42,8.44-5.68,12.07-2.19,3.59-7.07,9.41-14.65,17.46,5.9-21.84,8.85-32.99,8.85-33.46,0-.66-.25-1.58-.76-2.75-2.19-2.97-4.53-4.45-7.03-4.45h-.82c-1.09,0-1.99.37-2.7,1.11-.47,0-1.15,1.91-2.05,5.74-.94,3.49-1.82,6.74-2.64,9.78-1.83,1.5-3.76,2.15-5.8,1.94v-2.23c.08-2.54-.14-4.57-.64-6.09-.51-1.48-.9-2.44-1.17-2.87-2.03-3.44-4.2-5.16-6.5-5.16h-.06c-.55,0-1.05.12-1.52.35-1.17.62-1.93,1.6-2.29,2.93-2.15-3.67-5.29-5.51-9.43-5.51h-1.11c-1.29,0-2.75.29-4.39.88-4.3,1.56-7.97,4.65-11.02,9.26-3.5,6.17-5.3,12.4-5.42,18.69-.27.39-.55.8-.84,1.23-8.12,10.2-14.86,15.29-20.21,15.29-3.59,0-5.39-2.4-5.39-7.21v-1.11c0-3.75.88-7.87,2.64-12.36,1.45-3.75,3.61-7.15,6.5-10.2,2.54-2.19,4.69-3.32,6.45-3.4h.06c-.51,1.52-1.39,3.16-2.64,4.92-1.13,1.29-1.7,2.17-1.7,2.64v.35c0,.2.06.39.18.59.78,1.37,1.8,2.05,3.05,2.05.66,0,1.19-.27,1.58-.82,3.4-4.26,5.1-8.05,5.1-11.37,0-1.21-.23-2.66-.7-4.34-1.68-3.4-3.98-5.1-6.91-5.1h-1.17c-4.53,0-8.96,1.99-13.3,5.98-2.66,2.66-4.61,5.14-5.86,7.44-3.23,6.13-5.06,11.84-5.47,17.13-.87,1.08-1.82,2.2-2.85,3.37-4.61,5.04-7.64,7.91-9.08,8.61l3.11-11.78c3.98-14.73,6.05-22.58,6.21-23.55,0-1.09-.49-2.29-1.46-3.57-1.99-2.42-4.24-3.63-6.74-3.63h-.18c-1.09,0-2.07.35-2.93,1.05-.66.66-1.11,1.68-1.35,3.05-1.86,6.88-3.49,12.93-4.9,18.16-3.4-.2-5.12-.96-5.12-2.28,0-.39.14-1.31.41-2.75,1.68-6.29,2.52-9.57,2.52-9.84v-.47c0-.59-.21-1.37-.64-2.34-1.99-2.93-4.18-4.39-6.56-4.39-6.17,0-13.83,6.91-22.97,20.74h-.12v-.12c2.34-8.44,3.52-12.97,3.52-13.59v-.12c0-.74-.21-1.58-.64-2.52-2.15-3.05-4.49-4.57-7.03-4.57h-.76c-2.27,0-3.65,1.39-4.16,4.16-2.81,10.43-5.1,18.95-6.86,25.55-1.76,2.3-3.75,4.65-5.98,7.03-2.77,2.73-5.06,4.67-6.86,5.8,9.77-36.41,14.65-54.69,14.65-54.84h14.77c1.64-.12,2.46-.66,2.46-1.64v-.76c-.7-2.15-2.32-3.22-4.86-3.22h-10.84c2.34-8.36,3.52-12.89,3.52-13.59,0-.55-.16-1.31-.47-2.29-2.15-3.28-4.59-4.92-7.32-4.92h-.82c-1.25,0-2.34.57-3.28,1.7-.31.74-2.05,7.11-5.21,19.1h-13.18c-1.83,0-2.75.55-2.75,1.64v.59c0,.2.02.35.06.47.78,1.95,2.31,2.93,4.57,2.93h9.79l-5.98,22.32c-2.39,8.9-4.34,16.2-5.86,21.89-.99,1.24-2.02,2.48-3.11,3.72-3.71,3.67-6.37,5.98-7.97,6.91l3.16-11.78c4.06-15,6.11-22.85,6.15-23.55,0-.62-.21-1.48-.64-2.58-2.19-3.09-4.57-4.63-7.15-4.63h-.82c-1.29,0-2.4.61-3.34,1.82-.78,2.62-1.74,5.72-2.87,9.32-1.52,4.41-3.42,8.44-5.68,12.07-2.19,3.59-7.07,9.41-14.65,17.46,5.9-21.84,8.85-32.99,8.85-33.46,0-.66-.25-1.58-.76-2.75-2.19-2.97-4.53-4.45-7.03-4.45h-.82c-1.09,0-1.99.37-2.7,1.11-.47,0-1.15,1.91-2.05,5.74-4.49,16.63-7.56,28.09-9.21,34.41-3.61,4.52-7.3,7.87-11.09,10.02,0-4.39.61-12.84,1.83-25.34,2.29-17.38,4.93-34.28,7.91-50.68.49-2.54.73-6.49.73-11.87,0-2.34-1.29-4.88-3.88-7.62-2.54-2.83-5.2-4.25-7.98-4.25-2.39,0-4.32.85-5.79,2.56-.78.83-1.43,1.76-1.94,2.78s-1.23,2.76-2.16,5.2c-2.2,7.13-3.78,12.21-4.76,15.23l-3.59,10.69-2.12,7.32-3.59,13.04c-1.17,4.2-1.88,6.3-2.12,6.3-.29,0-.44-.39-.44-1.17,0-2.15,1.05-8.84,3.15-20.07l1.68-9.45,2.93-15.82c1.81-9.33,2.71-15.16,2.71-17.5,0-.44-.15-.95-.44-1.54l-.88-2.05c-.63-1.32-1.23-2.25-1.79-2.78-.56-.54-1.67-1.12-3.33-1.76-1.56-.68-3.61-1.03-6.15-1.03-11.87,0-24.46,3.86-37.79,11.57-13.09,7.57-22.12,16.6-27.1,27.1-2.44,5.18-3.66,8.98-3.66,11.43,0,.15.05.49.15,1.03.1.54.15.9.15,1.1,0,.15-.22.63-.66,1.46-.44.83-.66,1.44-.66,1.83,1.46,7.47,6.81,11.21,16.04,11.21.39,0,1.29-.05,2.71-.15,1.42-.1,2.32-.15,2.71-.15,7.96-3.81,14.45-9.11,19.48-15.89,4.93-6.69,7.4-12.65,7.4-17.87-.98-1.76-1.59-2.64-1.83-2.64-.63,0-1.15.78-1.54,2.34-.73,2.74-3.17,6.4-7.32,10.99-3.37,3.86-7.18,7.64-11.43,11.35-5.27,4.59-9.72,6.96-13.33,7.1-.88-.78-1.73-2.29-2.56-4.54-.15-.44-.34-1.42-.59-2.93-.25-1.51-.44-2.49-.59-2.93,1.03-2.25,1.59-3.78,1.68-4.61,1.56-6.2,4.07-11.85,7.51-16.96,3.44-5.1,7.58-9,12.41-11.68,13.62-7.62,24.78-11.43,33.47-11.43,2.64,0,4.47.35,5.49,1.06,1.03.71,1.54,2.16,1.54,4.36s-.66,7.35-1.98,15.6l-1.17,7.18c-4.79,31.89-7.18,56.74-7.18,74.56,0,6.88,1.49,10.69,4.47,11.43.1.05.52.24,1.28.59.76.34,1.44.6,2.05.77.61.17,1.16.26,1.65.26,1.37,0,2.05-.64,2.05-1.9,0-.44-.17-1.36-.51-2.75-.34-1.39-.51-2.28-.51-2.67,0-.25.1-1.25.29-3,0-1.22-.05-2.98-.15-5.27v-5.42c0-6.1.81-12.5,2.42-19.19.98-3.52,1.71-6.4,2.2-8.64l3.15-10.4,2.86-9.01c2.59-8.06,5.44-15.36,8.57-21.9-.15.15.24-.83,1.17-2.93.93-2.1,2.03-4.32,3.3-6.67,1.27-2.34,2.27-3.78,3-4.32.54,2.78.81,5.88.81,9.3s-1.15,12.35-3.44,26.81c-2.39,14.79-3.76,23.66-4.1,26.59-.88,8.59-1.32,15.23-1.32,19.92,0,7.32,1.15,11.57,3.44,12.74,4.2,2.2,7.54,3.3,10.03,3.3s5.29-2.12,8.25-6.33c1.27,1.23,2.51,1.86,3.75,1.86,3.79,0,9.67-4.9,17.64-14.71,3.87-5.08,6-7.81,6.39-8.2-2.62,9.69-3.98,14.94-4.1,15.76v.53c0,.94.35,1.93,1.05,2.99,1.91,2.42,3.69,3.63,5.33,3.63h.64c2.85,0,7.13-2.7,12.83-8.09,1.05-1.06,2.04-2.08,3-3.08-.61,2.35-.95,3.69-1,4.02v.7c0,.7.25,1.48.76,2.34,1.92,2.73,3.79,4.1,5.62,4.1h.64c2.81,0,7.03-2.64,12.66-7.91,1.8-1.8,3.4-3.44,4.8-4.92-.9,3.44-1.35,5.21-1.35,5.33v.7c0,.94.45,2.01,1.35,3.22,2.03,2.38,4.14,3.57,6.33,3.57h.76c1.33,0,2.46-.61,3.4-1.82,1.95-6.76,3.81-11.95,5.57-15.59,1.88-4.73,5.1-10.29,9.67-16.7,1.52-2.38,4.69-5.9,9.49-10.55h.06c-1.37,5.16-2.05,7.95-2.05,8.38,0,.98.33,1.95,1,2.93,2.81,3.93,8.13,6.04,15.94,6.34-3.35,12.47-5.09,19.09-5.22,19.85v.7c0,.62.25,1.45.76,2.46,1.99,2.66,3.87,3.98,5.62,3.98h.64c4.09,0,10.72-5.18,19.9-15.52.73,4.42,2.71,8.31,6,11.66,3.12,2.58,6.15,3.87,9.08,3.87h.94c6.72,0,14.4-5.62,23.03-16.85.26,1.21.57,2.43,1,3.67,4.02,8.79,8.81,13.18,14.36,13.18h1.05c3.24,0,7.05-1.86,11.43-5.57,3.95-3.75,6.6-6.78,7.97-9.08,3.01-5.08,5.06-10.02,6.15-14.82,1.79-.04,3.4-.29,4.84-.73-3.9,14.52-5.92,22.21-6.07,23.06v.7c0,.7.25,1.48.76,2.34,1.91,2.73,3.79,4.1,5.62,4.1,3.79,0,9.67-4.9,17.64-14.71,3.87-5.08,6-7.81,6.39-8.2-2.62,9.69-3.98,14.94-4.1,15.76v.53c0,.94.35,1.93,1.05,2.99,1.91,2.42,3.69,3.63,5.33,3.63h.64c2.85,0,7.13-2.7,12.83-8.09.99-1,1.93-1.97,2.84-2.92-.57,2.2-.85,3.4-.85,3.57v.47c0,.74.25,1.62.76,2.64,2.15,2.89,4.43,4.34,6.86,4.34h.76c1.64,0,2.83-.72,3.57-2.17,1.88-6.64,3.87-12.15,5.98-16.52,1.76-4.02,4.49-8.77,8.2-14.24,2.15-3.2,5.51-7.03,10.08-11.48h.12c0,1.13-.96,5.31-2.87,12.54-4.18,14.88-6.43,23.12-6.74,24.73.04.62.2,1.31.47,2.05,1.88,3.16,3.91,4.75,6.09,4.75h.41c3.42,0,8.61-3.63,15.54-10.84-.61,2.36-.95,3.72-1.01,4.05v.7c0,.7.25,1.48.76,2.34,1.91,2.73,3.79,4.1,5.62,4.1h.64c2.81,0,7.03-2.64,12.66-7.91,5.62-5.62,9.35-9.77,11.19-12.42,3.48-4.26,5.21-6.7,5.21-7.32l-.06-.47c-.7-1.64-1.78-2.46-3.22-2.46-.43,0-.84.12-1.23.35-2.62,4.22-5.96,8.5-10.02,12.83-2.77,2.73-5.06,4.67-6.86,5.8,9.76-36.41,14.65-54.69,14.65-54.84h14.77c1.64-.12,2.46-.66,2.46-1.64v-.76c-.7-2.15-2.32-3.22-4.86-3.22Zm-142.27,42.3c-1.45,5.39-4.08,10.59-7.91,15.59-3.79,3.48-7.27,5.21-10.43,5.21-.94,0-1.88-.23-2.81-.7-2.42-1.52-3.63-4.77-3.63-9.73v-1.29c0-6.25,1.85-12.01,5.57-17.29,3.2-3.83,6.07-5.74,8.61-5.74h.06c1.21.16,1.82.72,1.82,1.7,0,.59-.33,1.68-1,3.28v.35c.66,1.8,1.8,2.7,3.4,2.7.27,0,.41-.04.41-.12.31,0,.59-.14.82-.41.74,1.68,2.46,3.54,5.16,5.57.08.12.06.41-.06.88Z" fill="#213547"/>
    </g>
  </g>
</svg>