<?xml version="1.0" encoding="UTF-8"?>
<svg id="Layer_2" data-name="Layer 2" xmlns="http://www.w3.org/2000/svg" viewBox="0 0 321.34 90.88">
  <g id="Layer_1-2" data-name="Layer 1">
    <g>
      <path d="m52.59,75.47v-.17c0-.51.03-.91.08-1.19,0-.71,1.89-8.77,5.66-24.18,5.1-21.14,7.64-31.84,7.64-32.1v-.51c0-.34-.11-.87-.34-1.57-1.53-2.58-3.29-3.87-5.27-3.87-1.2,0-2.12.48-2.75,1.45-.26.77-4.55,18.6-12.88,53.51-1.53,4.51-2.8,6.77-3.82,6.77h-.27c-.41,0-.85-.5-1.34-1.49-1.86-5.36-2.79-17.65-2.79-36.86v-1.49c0-7.01.18-16.5.54-28.48,0-.17-.08-.57-.23-1.19-1.35-2.72-3.11-4.09-5.27-4.09h-.31c-3.82,0-8.55,2.77-14.18,8.3-.89.99-1.39,1.49-1.49,1.49-2.62,3.06-4.75,5.82-6.38,8.26C3.06,27.81,0,36.62,0,44.48v.3c0,.43.13.99.38,1.7,1.53,2.5,3.27,3.75,5.24,3.75,1.43,0,2.41-.67,2.94-2,.18-3.41.47-6.16.88-8.26.92-4.71,1.94-8.54,3.06-11.49,3.92-10.44,8.71-17.17,14.37-20.18l-14.83,59.13c-1.48,5.31-2.22,9.08-2.22,11.32s.41,4.4,1.22,6.39c2.04,3.83,4.19,5.75,6.46,5.75h.46c1.83-.26,2.75-1.23,2.75-2.94,0-1.11-.53-2.31-1.61-3.62-.41-.2-.61-1.12-.61-2.77,0-.79.11-1.72.34-2.77,0-.17,3.01-12.27,9.02-36.31h.08v.17c0,4.68.36,10.9,1.07,18.64.43,4.12.97,7.42,1.61,9.92,1.1,6.04,3.3,9.07,6.61,9.07,2.45,0,4.79-1.39,7.03-4.17,0,.71.46,2,1.38,3.87,1.94,3.18,3.96,4.77,6.08,4.77.33,0,.76-.07,1.3-.21,1.15-.54,1.72-1.4,1.72-2.6v-.17c0-1.11-.47-2.24-1.41-3.41-.48-.2-.73-1.16-.73-2.89Z"/>
      <path d="m148.67,40.95h.31c1.04,0,1.85-.5,2.41-1.49,2.19-8.97,3.36-13.96,3.52-14.98,0-.57-.14-1.22-.42-1.96-1.4-2.24-2.96-3.36-4.66-3.36h-.54c-.48,0-.94.16-1.38.47-.53,0-1.1,1.43-1.68,4.3-1.68,6.92-2.59,10.85-2.71,11.79,0,.65.19,1.35.57,2.09,1.38,2.1,2.9,3.15,4.59,3.15Z"/>
      <path d="m257.24,67.56l-.94,1.66c-.58,1.1-1.6,2.21-3.09,3.31-1.49,1.1-3.14,1.66-4.97,1.66-2.56,0-4.64-.83-6.26-2.48-1.62-1.66-2.43-4.11-2.43-7.37v-24.67h-6.57v15.96c-.65-4.19-2.32-7.82-5.01-10.91-3.55-4.07-7.98-6.1-13.31-6.1s-9.76,2.04-13.31,6.1c-3.55,4.07-5.32,9.1-5.32,15.08,0,3.1.48,5.94,1.43,8.52l-2.13-2.42-.63.78c-.47.58-1.17,1.26-2.11,2.05-.94.78-2.01,1.58-3.21,2.4-1.2.81-2.67,1.5-4.42,2.05-1.75.55-3.56.83-5.44.83-5.79,0-10.58-2.43-14.36-7.28-3.78-4.85-5.67-10.62-5.67-17.3s1.89-12.45,5.67-17.3c3.78-4.85,8.57-7.28,14.36-7.28,1.88,0,3.69.26,5.44.78,1.75.52,3.16,1.09,4.23,1.7,1.07.61,2.07,1.34,3.01,2.18.94.84,1.54,1.42,1.8,1.74.26.32.47.57.63.74l4.54-4.79-2.11-2.35c-1.36-1.51-3.67-3.05-6.93-4.62-3.26-1.57-6.8-2.35-10.61-2.35-7.83,0-14.3,3.04-19.41,9.11-5.11,6.07-7.67,13.56-7.67,22.45,0,3.34.36,6.48,1.08,9.42-1.09,1.84-2.59,3.98-4.5,6.41-3.01,3.66-4.98,5.75-5.92,6.26l2.03-8.56c2.6-10.7,3.95-16.4,4.05-17.11,0-.79-.32-1.66-.96-2.6-1.3-1.76-2.76-2.64-4.4-2.64h-.11c-.71,0-1.35.26-1.91.77-.43.48-.73,1.22-.88,2.21-1.21,5-2.28,9.4-3.19,13.19-2.22-.15-3.34-.7-3.34-1.66,0-.28.09-.95.27-2,1.1-4.57,1.64-6.95,1.64-7.15v-.34c0-.43-.14-.99-.42-1.7-1.3-2.13-2.73-3.19-4.28-3.19-4.03,0-9.02,5.02-14.98,15.07h-.08v-.09c1.53-6.13,2.29-9.42,2.29-9.88v-.09c0-.54-.14-1.15-.42-1.83-1.4-2.21-2.93-3.32-4.59-3.32h-.5c-1.48,0-2.38,1.01-2.71,3.02-1.83,7.58-3.32,13.76-4.47,18.56-1.15,1.67-2.45,3.38-3.9,5.11-1.81,1.99-3.3,3.39-4.47,4.21,6.37-26.45,9.55-39.73,9.55-39.84h9.63c1.07-.09,1.61-.48,1.61-1.19v-.55c-.46-1.56-1.52-2.34-3.17-2.34h-7.07c1.53-6.07,2.29-9.36,2.29-9.88,0-.4-.1-.95-.31-1.66-1.4-2.38-2.99-3.58-4.78-3.58h-.54c-.82,0-1.53.41-2.14,1.23-.2.54-1.34,5.17-3.4,13.88h-8.6c-1.2,0-1.8.4-1.8,1.19v.43c0,.14.01.26.04.34.51,1.42,1.5,2.13,2.98,2.13h6.38l-3.9,16.22c-1.56,6.47-2.83,11.77-3.82,15.9-.65.9-1.32,1.8-2.03,2.7-2.42,2.67-4.15,4.34-5.2,5.02l2.06-8.56c2.65-10.9,3.99-16.6,4.01-17.11,0-.45-.14-1.08-.42-1.87-1.43-2.24-2.98-3.36-4.66-3.36h-.54c-.84,0-1.57.44-2.18,1.32-.51,1.9-1.13,4.16-1.87,6.77-.99,3.21-2.23,6.13-3.71,8.77-1.43,2.61-4.61,6.84-9.55,12.69,3.85-15.86,5.77-23.97,5.77-24.31,0-.48-.17-1.15-.5-2-1.43-2.16-2.96-3.24-4.59-3.24h-.54c-.71,0-1.3.27-1.76.81-.31,0-.75,1.39-1.34,4.17-4.51,18.62-6.83,28.34-6.96,29.16v.51c0,.51.17,1.08.5,1.7,1.25,1.99,2.47,2.98,3.67,2.98,2.47,0,6.31-3.56,11.5-10.68,2.52-3.69,3.91-5.68,4.17-5.96-1.71,7.04-2.6,10.85-2.68,11.45v.38c0,.68.23,1.4.69,2.17,1.25,1.76,2.41,2.64,3.48,2.64h.42c1.86,0,4.65-1.96,8.37-5.87.68-.77,1.33-1.51,1.95-2.24-.4,1.7-.62,2.68-.66,2.92v.51c0,.51.17,1.08.5,1.7,1.25,1.99,2.47,2.98,3.67,2.98h.42c1.83,0,4.59-1.92,8.26-5.75,1.17-1.31,2.22-2.5,3.13-3.58-.59,2.5-.88,3.79-.88,3.87v.51c0,.68.29,1.46.88,2.34,1.32,1.73,2.7,2.6,4.13,2.6h.5c.87,0,1.61-.44,2.22-1.32,1.27-4.91,2.48-8.68,3.63-11.32,1.22-3.43,3.33-7.48,6.31-12.13.99-1.73,3.06-4.28,6.19-7.66h.04c-.89,3.75-1.34,5.78-1.34,6.09,0,.71.22,1.42.65,2.13,1.84,2.86,5.3,4.39,10.4,4.61-2.18,9.06-3.32,13.87-3.4,14.42v.51c0,.45.17,1.05.5,1.79,1.3,1.93,2.52,2.89,3.67,2.89h.42c3.03,0,8.2-4.85,15.52-14.56.53-.77.99-1.45,1.4-2.05,1.25,3.1,2.96,5.95,5.14,8.54,5.11,6.07,11.58,9.11,19.41,9.11,2.4,0,4.75-.36,7.04-1.09,2.3-.73,4.17-1.53,5.64-2.4,1.46-.87,2.84-1.89,4.15-3.05,1.3-1.16,2.15-1.96,2.54-2.4.08-.09.15-.17.22-.26.65,1.08,1.39,2.12,2.24,3.09,3.55,4.07,7.98,6.1,13.31,6.1s9.76-2.03,13.31-6.1c2.69-3.08,4.36-6.72,5.01-10.91v1.58c0,4.77,1.32,8.53,3.95,11.29,2.63,2.76,5.86,4.14,9.67,4.14,1.46,0,2.84-.26,4.15-.78,1.3-.52,2.35-1.1,3.13-1.74.78-.64,1.5-1.36,2.15-2.18.65-.81,1.07-1.39,1.25-1.74.18-.35.32-.61.43-.78v6.19h6.11v-40.28h-6.57v27.9Zm-33.89,2.48c-2.24,2.76-5.14,4.14-8.69,4.14s-6.45-1.38-8.69-4.14c-2.24-2.76-3.37-6.17-3.37-10.24s1.12-7.48,3.37-10.24c2.24-2.76,5.14-4.14,8.69-4.14s6.44,1.38,8.69,4.14c2.24,2.76,3.37,6.18,3.37,10.24s-1.12,7.48-3.37,10.24Z"/>
      <path d="m283.22,38.62c-1.46,0-2.84.25-4.15.74-1.3.49-2.35,1.03-3.13,1.61-.78.58-1.5,1.25-2.15,2.01-.65.76-1.07,1.29-1.25,1.61-.18.32-.33.57-.43.74v-5.67h-6.11v40.28h6.57v-27.72l.31-.7c.26-.46.65-1.03,1.17-1.7.52-.67,1.12-1.34,1.8-2.01.68-.67,1.53-1.23,2.54-1.7,1.02-.46,2.07-.7,3.17-.7,2.56,0,4.64.83,6.26,2.48,1.62,1.66,2.43,4.11,2.43,7.37v24.67h6.57v-25.89c0-4.76-1.32-8.53-3.95-11.29-2.64-2.76-5.86-4.14-9.67-4.14Z"/>
      <path d="m318.91,72.53l-.63.44c-.37.23-.89.49-1.57.78-.68.29-1.33.44-1.96.44-3.5,0-5.24-2.06-5.24-6.19v-21.71h11.27v-6.63h-11.27v-12.29h-6.57v12.29h-7.04v6.63h7.04v22.06c0,4.13,1.08,7.27,3.25,9.42,2.16,2.15,4.71,3.23,7.63,3.23,2.35,0,4.85-.81,7.51-2.44l-2.43-6.02Z"/>
    </g>
  </g>
</svg>