<?xml version="1.0" encoding="UTF-8"?>
<svg id="Layer_2" data-name="Layer 2" xmlns="http://www.w3.org/2000/svg" viewBox="0 0 431.33 125.1">
  <g id="Layer_1-2" data-name="Layer 1">
    <g>
      <path d="m73.94,103.89v-.23c0-.7.04-1.25.11-1.64,0-.98,2.65-12.07,7.95-33.28,7.16-29.1,10.75-43.83,10.75-44.18v-.7c0-.47-.16-1.19-.48-2.17-2.15-3.55-4.62-5.33-7.42-5.33-1.68,0-2.97.67-3.87,1.99-.36,1.05-6.39,25.61-18.11,73.65-2.15,6.21-3.94,9.32-5.37,9.32h-.38c-.57,0-1.2-.68-1.88-2.05-2.62-7.38-3.92-24.3-3.92-50.74v-2.05c0-9.65.25-22.71.75-39.2,0-.23-.11-.78-.32-1.64-1.9-3.75-4.37-5.62-7.42-5.62h-.43c-5.37,0-12.02,3.81-19.94,11.43-1.25,1.37-1.95,2.05-2.1,2.05-3.69,4.22-6.68,8.01-8.97,11.37C4.3,38.28,0,50.41,0,61.23v.41c0,.59.18,1.37.54,2.34,2.15,3.44,4.6,5.16,7.36,5.16,2.01,0,3.39-.92,4.14-2.75.25-4.69.66-8.48,1.24-11.37,1.29-6.48,2.72-11.76,4.3-15.82,5.52-14.37,12.25-23.63,20.2-27.77l-20.85,81.39c-2.08,7.31-3.12,12.5-3.12,15.59s.57,6.05,1.72,8.79c2.87,5.27,5.89,7.91,9.08,7.91h.64c2.58-.35,3.87-1.7,3.87-4.04,0-1.52-.75-3.18-2.26-4.98-.57-.27-.86-1.54-.86-3.81,0-1.09.16-2.36.48-3.81,0-.23,4.23-16.89,12.68-49.98h.11v.23c0,6.45.5,15,1.5,25.66.61,5.67,1.36,10.22,2.26,13.65,1.54,8.32,4.64,12.48,9.3,12.48,3.44,0,6.73-1.91,9.89-5.74,0,.98.64,2.75,1.93,5.33,2.72,4.38,5.57,6.56,8.54,6.56.47,0,1.07-.1,1.83-.29,1.61-.74,2.42-1.93,2.42-3.57v-.23c0-1.52-.66-3.08-1.99-4.69-.68-.27-1.02-1.6-1.02-3.98Z" fill="#213547"/>
      <path d="m209.03,56.37h.43c1.47,0,2.6-.68,3.39-2.05,3.08-12.34,4.73-19.22,4.94-20.62,0-.78-.2-1.68-.59-2.7-1.97-3.08-4.16-4.63-6.56-4.63h-.75c-.68,0-1.33.22-1.93.64-.75,0-1.54,1.97-2.36,5.92-2.36,9.53-3.64,14.94-3.82,16.23,0,.9.27,1.86.81,2.87,1.93,2.89,4.08,4.34,6.45,4.34Z" fill="#213547"/>
      <path d="m254.16,95.04c-.37.56-.97,1.22-1.82,1.98-.84.76-1.82,1.52-2.92,2.28-1.1.76-2.51,1.42-4.24,1.98-1.72.56-3.5.84-5.34.84-4.99,0-9.06-1.9-12.22-5.7-3.16-3.8-4.73-8.5-4.73-14.1s1.58-10.3,4.73-14.1c3.15-3.8,7.23-5.7,12.22-5.7,2.64,0,5.17.62,7.59,1.86,2.42,1.24,4,2.24,4.73,3,.73.76,1.28,1.38,1.65,1.86l6.27-6.12-2.2-2.52c-1.47-1.6-3.89-3.24-7.26-4.92-3.38-1.68-6.97-2.52-10.79-2.52-7.41,0-13.63,2.82-18.65,8.46-5.03,5.64-7.54,12.54-7.54,20.7,0,.65.02,1.3.05,1.93-1.19,1.71-2.59,3.57-4.2,5.57-4.23,5.04-7,7.91-8.33,8.61l2.85-11.78c3.65-14.73,5.55-22.58,5.7-23.55,0-1.09-.45-2.29-1.34-3.57-1.83-2.42-3.89-3.63-6.18-3.63h-.16c-1,0-1.9.35-2.69,1.05-.61.67-1.02,1.68-1.24,3.05-1.71,6.88-3.2,12.93-4.49,18.16-3.12-.2-4.7-.96-4.7-2.28,0-.39.12-1.31.38-2.75,1.54-6.29,2.31-9.57,2.31-9.84v-.47c0-.59-.2-1.37-.59-2.34-1.83-2.93-3.83-4.39-6.02-4.39-5.66,0-12.68,6.91-21.06,20.74h-.11v-.12c2.15-8.44,3.22-12.97,3.22-13.59v-.12c0-.74-.2-1.58-.59-2.52-1.97-3.05-4.12-4.57-6.45-4.57h-.7c-2.08,0-3.35,1.39-3.82,4.16-2.58,10.43-4.67,18.95-6.29,25.55-1.61,2.31-3.44,4.65-5.48,7.03-2.54,2.74-4.64,4.67-6.29,5.8,8.96-36.41,13.43-54.69,13.43-54.84h13.54c1.5-.12,2.26-.66,2.26-1.64v-.76c-.64-2.15-2.13-3.22-4.46-3.22h-9.94c2.15-8.36,3.22-12.89,3.22-13.59,0-.55-.14-1.31-.43-2.29-1.97-3.28-4.21-4.92-6.72-4.92h-.75c-1.15,0-2.15.57-3.01,1.7-.29.74-1.88,7.11-4.78,19.1h-12.09c-1.68,0-2.53.55-2.53,1.64v.59c0,.2.02.35.05.47.72,1.95,2.11,2.93,4.19,2.93h8.97l-5.48,22.32c-2.19,8.9-3.98,16.2-5.37,21.89-.91,1.24-1.85,2.48-2.85,3.72-3.4,3.67-5.84,5.98-7.31,6.91l2.9-11.78c3.73-15,5.61-22.85,5.64-23.55,0-.62-.2-1.48-.59-2.58-2.01-3.08-4.19-4.63-6.56-4.63h-.75c-1.18,0-2.2.61-3.06,1.82-.72,2.62-1.59,5.72-2.63,9.32-1.4,4.42-3.14,8.44-5.21,12.07-2.01,3.59-6.48,9.42-13.43,17.46,5.41-21.83,8.11-32.99,8.11-33.46,0-.66-.23-1.58-.7-2.75-2.01-2.97-4.16-4.45-6.45-4.45h-.75c-1,0-1.83.37-2.47,1.11-.43,0-1.06,1.92-1.88,5.74-6.34,25.63-9.6,39-9.78,40.14v.7c0,.7.23,1.49.7,2.34,1.76,2.74,3.48,4.1,5.16,4.1,3.47,0,8.87-4.9,16.17-14.71,3.55-5.08,5.5-7.81,5.86-8.2-2.4,9.69-3.65,14.94-3.76,15.76v.53c0,.94.32,1.93.97,2.99,1.75,2.42,3.39,3.63,4.89,3.63h.59c2.61,0,6.54-2.7,11.77-8.09.96-1.05,1.87-2.08,2.75-3.08-.56,2.35-.87,3.69-.92,4.02v.7c0,.7.23,1.49.7,2.34,1.76,2.74,3.48,4.1,5.16,4.1h.59c2.58,0,6.45-2.64,11.61-7.91,1.65-1.8,3.12-3.44,4.41-4.92-.82,3.44-1.24,5.21-1.24,5.33v.7c0,.94.41,2.01,1.24,3.22,1.86,2.38,3.8,3.57,5.8,3.57h.7c1.22,0,2.26-.6,3.12-1.82,1.79-6.76,3.49-11.95,5.1-15.59,1.72-4.73,4.67-10.29,8.87-16.7,1.4-2.38,4.3-5.9,8.71-10.55h.05c-1.25,5.16-1.88,7.95-1.88,8.38,0,.98.3,1.95.91,2.93,2.58,3.93,7.46,6.04,14.62,6.34-3.07,12.47-4.66,19.09-4.78,19.85v.7c0,.63.23,1.45.7,2.46,1.83,2.66,3.55,3.98,5.16,3.98h.59c4.11,0,11.02-6.23,20.72-18.64,1.19,4.38,3.29,8.27,6.33,11.68,4.99,5.6,11.23,8.4,18.71,8.4,2.49,0,4.93-.38,7.32-1.14,2.38-.76,4.31-1.62,5.78-2.58,1.47-.96,2.88-2.04,4.24-3.24,1.36-1.2,2.22-2.04,2.59-2.52.37-.48.66-.88.88-1.2l-5.94-6.6-.55.84Z" fill="#213547"/>
      <path d="m341.2,93l-1.32,2.28c-.81,1.52-2.26,3.04-4.35,4.56-2.09,1.52-4.42,2.28-6.99,2.28-3.6,0-6.53-1.14-8.8-3.42-2.28-2.28-3.41-5.66-3.41-10.14v-33.96h-9.24v21.97c-.92-5.76-3.26-10.77-7.04-15.01-4.99-5.6-11.23-8.4-18.71-8.4s-13.72,2.8-18.71,8.4c-4.99,5.6-7.48,12.52-7.48,20.76s2.49,15.16,7.48,20.76c4.99,5.6,11.23,8.4,18.71,8.4s13.72-2.8,18.71-8.4c3.78-4.24,6.13-9.25,7.04-15.01v2.17c0,6.56,1.85,11.74,5.56,15.54,3.7,3.8,8.23,5.7,13.59,5.7,2.05,0,4-.36,5.83-1.08,1.83-.72,3.3-1.52,4.4-2.4,1.1-.88,2.11-1.88,3.03-3,.92-1.12,1.5-1.92,1.76-2.4.26-.48.46-.84.6-1.08v8.52h8.58v-55.44h-9.24v38.4Zm-47.65,3.42c-3.16,3.8-7.23,5.7-12.21,5.7s-9.06-1.9-12.22-5.7c-3.16-3.8-4.73-8.5-4.73-14.1s1.58-10.3,4.73-14.1c3.15-3.8,7.23-5.7,12.22-5.7s9.06,1.9,12.21,5.7c3.15,3.8,4.73,8.5,4.73,14.1s-1.58,10.3-4.73,14.1Z" fill="#213547"/>
      <path d="m377.74,53.16c-2.05,0-4,.34-5.83,1.02-1.83.68-3.3,1.42-4.4,2.22-1.1.8-2.11,1.72-3.03,2.76-.92,1.04-1.5,1.78-1.76,2.22-.26.44-.46.78-.61,1.02v-7.8h-8.58v55.44h9.24v-38.16l.44-.96c.37-.64.92-1.42,1.65-2.34.73-.92,1.58-1.84,2.53-2.76.95-.92,2.15-1.7,3.58-2.34,1.43-.64,2.92-.96,4.46-.96,3.59,0,6.53,1.14,8.8,3.42,2.27,2.28,3.41,5.66,3.41,10.14v33.96h9.24v-35.64c0-6.56-1.85-11.74-5.56-15.54-3.71-3.8-8.24-5.7-13.59-5.7Z" fill="#213547"/>
      <path d="m427.92,99.84l-.88.6c-.51.32-1.25.68-2.2,1.08-.95.4-1.87.6-2.75.6-4.92,0-7.37-2.84-7.37-8.52v-29.88h15.85v-9.12h-15.85v-16.92h-9.24v16.92h-9.9v9.12h9.9v30.36c0,5.68,1.52,10,4.57,12.96,3.04,2.96,6.62,4.44,10.73,4.44,3.3,0,6.82-1.12,10.56-3.36l-3.41-8.28Z" fill="#213547"/>
    </g>
  </g>
</svg>